{"title":"Man Of Steel 2013 BRRip AAC x264-SSDD","uid":9050581,"size":577091714,"categoryP":"video","categoryS":"movies","magnet":"?xt=urn:btih:b34572e8ccd040e443a999291b51949181f47a0e&amp;dn=Man+Of+Steel+2013+BRRip+AAC+x264-SSDD&amp;tr=udp%3A%2F%2Ftracker.openbittorrent.com%3A80&amp;tr=udp%3A%2F%2Fopen.demonii.com%3A1337&amp;tr=udp%3A%2F%2Ftracker.coppersurfer.tk%3A6969&amp;tr=udp%3A%2F%2Fexodus.desync.com%3A6969","seeders":1,"leechers":0,"uploader":"charlesfire22","files":1,"time":1381862398,"description":"Man Of Steel 2013 BRRip AAC x264-SSDD\n &lt;a href=&quot;\nhttp://www.imdb.com/title/tt0770828/&quot; rel=&quot;nofollow&quot; target=&quot;_NEW&quot;&gt;\nhttp://www.imdb.com/title/tt0770828/&lt;/a&gt;\n\nGeneral\nComplete name: Man Of Steel 2013 BRRip AAC x264-SSDD.mp4\nFormat: MPEG-4\nFormat profile: Base Media\nCodec ID: isom\nFile size: 550 MiB\nDuration: 2h 13mn\nOverall bit rate mode: Variable\nOverall bit rate: 578 Kbps\n\nVideo\nID: 1\nFormat: AVC\nFormat/Info: Advanced Video Codec\nFormat profile: &lt;a class=&quot;__cf_email__&quot; href=&quot;/cdn-cgi/l/email-protection&quot; data-cfemail=&quot;5b163a32351b1768756b&quot;&gt;[email&amp;#160;protected]&lt;/a&gt;&lt;script cf-hash='f9e31' type=&quot;text/javascript&quot;&gt;\n/* &lt;![CDATA[ */!function(){try{var t=&quot;currentScript&quot;in document?document.currentScript:function(){for(var t=document.getElementsByTagName(&quot;script&quot;),e=t.length;e--;)if(t[e].getAttribute(&quot;cf-hash&quot;))return t[e]}();if(t&amp;&amp;t.previousSibling){var e,r,n,i,c=t.previousSibling,a=c.getAttribute(&quot;data-cfemail&quot;);if(a){for(e=&quot;&quot;,r=parseInt(a.substr(0,2),16),n=2;a.length-n;n+=2)i=parseInt(a.substr(n,2),16)^r,e+=String.fromCharCode(i);e=document.createTextNode(e),c.parentNode.replaceChild(e,c)}}}catch(u){}}();/* ]]&gt; */&lt;/script&gt;\nFormat settings, CABAC: Yes\nFormat settings, ReFrames: 4 frames\nCodec ID: avc1\nCodec ID/Info: Advanced Video Coding\nDuration: 2h 13mn\nBit rate: 526 Kbps\nMaximum bit rate: 1 782 Kbps\nWidth: 720 pixels\nHeight: 300 pixels\nDisplay aspect ratio: 2.40:1\nFrame rate mode: Constant\nFrame rate: 23.976 fps\nColor space: YUV\nChroma subsampling: 4:2:0\nBit depth: 8 bits\nScan type: Progressive\nBits/(Pixel*Frame): 0.102\nStream size: 501 MiB (91%)\nWriting library: x264 core 138 r2358 9e941d1\n\nAudio\nID: 2\nFormat: AAC\nFormat/Info: Advanced Audio Codec\nFormat profile: LC\nCodec ID: 40\nDuration: 2h 13mn\nBit rate mode: Variable\nBit rate: 48.0 Kbps\nMaximum bit rate: 59.3 Kbps\nChannel count: 2 channels\nChannel positions: Front: L R\nSampling rate: 48.0 KHz\nCompression mode: Lossy\nStream size: 45.7 MiB (8%) \n\nScreen\n &lt;a href=&quot;\nhttp://bayimg.com/pabAPaAfa&quot; rel=&quot;nofollow&quot; target=&quot;_NEW&quot;&gt;\nhttp://bayimg.com/pabAPaAfa&lt;/a&gt;","torrent":{"xt":"urn:btih:b34572e8ccd040e443a999291b51949181f47a0e","amp;dn":"Man+Of+Steel+2013+BRRip+AAC+x264-SSDD","amp;tr":["udp%3A%2F%2Ftracker.openbittorrent.com%3A80","udp%3A%2F%2Fopen.demonii.com%3A1337","udp%3A%2F%2Ftracker.coppersurfer.tk%3A6969","udp%3A%2F%2Fexodus.desync.com%3A6969"],"infoHash":"b34572e8ccd040e443a999291b51949181f47a0e","infoHashBuffer":{"type":"Buffer","data":[179,69,114,232,204,208,64,228,67,169,153,41,27,81,148,145,129,244,122,14]},"announce":[],"urlList":[]}}